<?xml version="1.0" encoding="UTF-8"?><svg xmlns="http://www.w3.org/2000/svg" viewBox="0 0 344.27 238.53"><defs><style>.cls-1{fill:#5d6060;}.cls-2{fill:#0dcaf0;}</style></defs><g id="Panda_kuju"><g><path class="cls-1" d="M87.94,92.19c-4.41-3.07-5.36-7.5-3.35-12.09,2.87-6.56,11.13-12.09,20.62-10.9,12.34,1.54,17.61,10,19.84,16.43,4.65,13.38-4.85,31.03-21.44,24.15-7.57-3.14-4.58-9.87-15.68-17.59Z"/><path class="cls-1" d="M72.95,102.34c3.41,4.71-6.96,13.69-10.46,9.28-4.29-5.4-5.9-13.43,.94-13.4,0,0,6.73,.26,9.52,4.12Z"/><path class="cls-1" d="M41.65,126.2c4.96,7.11,15.45,8.08,30.22,8.62,10.37,6.95,21.67,10.03,29.66,11.39,4.76,12.52,20.87,10.78,44.06,10.78,7.27,0,13.76-1.13,19.54-3.19,13.99,0,53.19-.02,63.47-.02,5.92,2.48,13.08,3.59,21.22,3.29,37.3-1.37,43.78-38.81,42.91-58.73-.38-8.71-2.21-15.04-4.71-19.69-.08-7.67-1.26-15.19-3.48-22.4,9.68-3.2,13.77-20.39,1.81-28.22-7.05-4.62-12.66-2-16.32,1.35C254.39,10.34,231.72,0,207.73,0c-21.32,0-41.77,8.6-56.69,23.45-8.44-5.89-16.63-2.98-19.72,4.88-1.33-.13-2.66-.23-3.99-.27-3-4.96-7.75-9.54-16.1-10.17-13.64-1.03-18.86,10.52-17.13,18.84-16.86,10.19-28.46,28.39-29.03,49.56-1.66,.8-6.98,1.84-11.24,8.52-14.71,5.58-18.27,22.66-12.19,31.4Zm176.7-4.54c3.33-3.56,10.39-4.85,20.67,.88,12.55,7,18.28,19.68,13.37,26.41-3.62,4.96-12.22,5.01-22.68-.29-12.75-6.46-18.15-19.74-11.36-27Zm-153.42-30.16c1.13-.39,2.07-.8,2.86-1.24,5.01-2.03,8.44-3.82,8.77-8.57,.47-6.61-3.85-9.94-2.13-15.76,9.21-20.95,31.22-35.1,55.91-32.89-.09,2.8,.73,5.46,2.63,7.27,7.72,7.32,5.36,5.02,9.85,12.48,3.79,6.3,16.06,5.33,16.12-8.68,.02-4.67,.08-11.89-4.37-17.41,14.01-13.88,33.19-21.91,53.18-21.91,40.12,0,71.34,30.39,75.12,67.06-13.9-13.04-34.38-5.5-38.7,12.58-.84,3.5-2.9,10.95-5.27,18.69-7.4-2.28-17.69-3.2-24.44,5.55-7.67,9.95-7.71,29.05,6.16,40.34-11.05,0-31.69,0-45.67,0,16.79-10.79,25.3-31.4,26.93-54.85,1.02-14.62-5.13-34.43-15.34-32.42-6.71,1.32-6.05,9.1-8.06,21.5-2.95,18.15-17.08,29.26-27.11,30.82-13.31,2.07-18.65,.37-31.15,2.6-14.24,2.54-20.53,14.58-19.78,24.45-8.63-1.7-19.92-6.18-30.4-13.62-4.26-3.02-11.88-9.24-14.12-18.27-1.68-6.76,2.25-15.37,9.04-17.72Z"/></g></g><g id="Tekst"><g><path class="cls-2" d="M21.5,171c-.41-.69-.73-1.29-.94-1.81C13.77,152.2,6.97,135.21,.18,118.23c-.23-.57-.23-1.03-.01-1.39,.22-.35,.58-.52,1.08-.5,3.11,.12,6.23,.24,9.34,.36,.54,.02,1.05,.25,1.52,.69,.47,.44,.8,1.01,.99,1.68,1.92,6.81,3.85,13.61,5.77,20.42,2.17-5.69,4.76-12.46,7.71-20.18,.32-1.29,1.16-1.93,2.5-1.88,3.57,.14,7.14,.28,10.71,.43,.45,.02,.86,.29,1.22,.81,.37,.52,.6,1.1,.69,1.73,.08,.55,.07,1.02-.02,1.4-4.23,11.45-7.96,21.46-11,29.7,8.1,13.55,15.56,28.91,22.58,45.67,.2,.43,.35,.96,.44,1.6,.09,.64,.04,1.12-.13,1.46-.17,.34-.43,.37-.79,.11-2.98-2.21-5.9-4.52-8.77-6.92-.93-.77-1.82-2.15-2.72-4.07-5.52-11.89-11.35-22.86-17.57-32.74,2.1,7.42,4.2,14.84,6.29,22.26,.19,.68,.22,1.1,.09,1.28-.13,.17-.39,.06-.79-.35-2.26-2.32-4.48-4.71-6.65-7.17-.34-.39-.72-.93-1.14-1.62Z"/><path class="cls-2" d="M58.19,203.36c-.38-.82-.62-1.64-.72-2.46-.63-5.19-1.26-10.38-1.89-15.57-.11-.9-.04-1.55,.22-1.96,.25-.41,.6-.51,1.03-.3,2.74,1.35,5.5,2.65,8.28,3.89,.48,.22,.91,.7,1.27,1.45,.36,.75,.59,1.61,.67,2.58,.5,5.59,.99,11.17,1.49,16.76,.08,.88,0,1.56-.24,2.05-.24,.48-.58,.58-1.04,.3-2.66-1.62-5.29-3.32-7.88-5.08-.41-.28-.8-.83-1.18-1.66Z"/><path class="cls-2" d="M82.69,216.12c-3.13-4.08-5.59-8.58-7.41-13.45-1.81-4.88-2.97-9.72-3.43-14.64-.06-.72,.04-1.32,.28-1.8,.25-.48,.57-.64,.98-.49,2.83,1.07,5.68,2.08,8.55,3.06,.55,.19,1,.55,1.37,1.09,.37,.54,.75,1.31,1.17,2.29,.73,2.69,1.79,5.1,3.19,7.21,1.4,2.11,3.18,3.57,5.37,4.32,2.6,.88,4.56,.61,5.88-.79,1.32-1.4,1.93-3.7,1.82-6.85-.08-2.23-.5-4.15-1.28-5.75-.78-1.6-1.96-3.14-3.54-4.63-1.59-1.49-3.93-3.31-7.02-5.48-5.7-3.92-10.06-8.57-13.13-13.78-3.07-5.22-4.94-11.82-5.56-20-.41-5.55,.03-10.39,1.38-14.65,1.35-4.26,3.51-7.6,6.49-10.01,2.97-2.41,6.58-3.62,10.76-3.48,4.34,.14,8.16,1.76,11.44,4.97,3.28,3.2,5.81,7.25,7.58,12.1,1.78,4.85,2.76,9.61,2.97,14.22,.02,.94-.1,1.71-.38,2.3-.28,.6-.63,.87-1.07,.82-3.21-.36-6.42-.75-9.62-1.15-.58-.07-1.06-.34-1.44-.79-.38-.45-.73-1.15-1.05-2.09-.38-2.36-1.24-4.42-2.59-6.16-1.36-1.74-2.99-2.7-4.89-2.9-2.2-.23-3.84,.37-4.93,1.79-1.09,1.41-1.55,3.6-1.39,6.58,.11,2.02,.52,3.76,1.24,5.22,.72,1.46,1.83,2.88,3.34,4.26,1.51,1.38,3.65,2.91,6.43,4.58,4.52,2.47,8.15,5.22,10.88,8.3,2.74,3.07,4.77,6.84,6.12,11.29,1.35,4.46,2.09,9.91,2.23,16.31,.16,7.03-.6,12.96-2.26,17.64-1.66,4.68-4.02,7.89-7.05,9.52-3.03,1.64-6.51,1.61-10.43-.05-4.23-1.8-7.87-4.87-11.01-8.93Z"/><path class="cls-2" d="M136.65,234.82c-.36-.88-.55-1.86-.56-2.95-.34-35.45-.69-70.89-1.03-106.34-.01-1.2,.17-2.17,.53-2.92,.37-.75,.8-1.12,1.3-1.1,6.48,.21,12.96,.42,19.44,.61,7.33,.21,13.01,4.27,17,12.12,3.99,7.86,6.01,19.1,6.11,33.81,.03,3.21,.03,7.46,0,12.77-.03,5.31-.09,9.51-.16,12.61-.35,15.37-2.42,26.85-6.19,34.36-3.77,7.49-9.19,11.21-16.27,10.71-6.34-.45-12.65-1.19-18.92-2.23-.47-.08-.89-.56-1.25-1.44Zm19.79-20.3c3.18,.2,5.53-1.45,7.03-4.89,1.51-3.44,2.32-9,2.43-16.66,.1-3.21,.16-7.37,.17-12.48,.01-5.1-.03-9.21-.12-12.32-.08-7.44-.94-12.95-2.59-16.56-1.65-3.6-4.11-5.46-7.37-5.58-2.47-.1-4.94-.2-7.41-.32,.09,22.74,.18,45.48,.27,68.22,2.53,.23,5.06,.43,7.59,.59Z"/><path class="cls-2" d="M188.04,139.12c-.34-.77-.5-1.76-.49-2.98,.04-4.95,.09-9.9,.13-14.85,.01-1.21,.19-2.19,.55-2.96,.36-.76,.81-1.13,1.36-1.12,3,.08,5.99,.17,8.98,.25,.55,.02,.99,.41,1.33,1.18,.34,.77,.5,1.75,.48,2.94-.07,4.89-.13,9.77-.2,14.66-.02,1.2-.2,2.17-.56,2.93-.36,.76-.81,1.14-1.35,1.14-2.97,0-5.94-.01-8.92-.03-.55,0-.99-.39-1.33-1.17Zm-.83,98.14c-.33-.74-.49-1.72-.48-2.93,.23-25.85,.47-51.7,.7-77.55,.01-1.21,.19-2.2,.55-2.97,.35-.77,.8-1.15,1.34-1.16,2.91,0,5.82-.04,8.73-.08,.54,0,.98,.37,1.32,1.12,.33,.76,.49,1.73,.48,2.92-.34,25.51-.68,51.03-1.02,76.54-.01,1.09-.2,2.06-.54,2.91-.35,.86-.78,1.32-1.31,1.39-2.82,.34-5.65,.63-8.48,.86-.53,.04-.96-.31-1.28-1.05Z"/><path class="cls-2" d="M212.86,232.83c-2.54-1.93-4.41-4.56-5.6-7.8-1.19-3.24-1.76-6.23-1.72-8.92,.02-1.07,.21-1.98,.58-2.73,.37-.74,.77-1.14,1.21-1.2,2.74-.35,5.48-.75,8.21-1.19,.29-.05,.54,.18,.77,.66,.56,.75,.97,1.36,1.25,1.83,1.01,1.5,1.9,2.56,2.67,3.19,.77,.63,1.72,.83,2.86,.59,1.38-.29,2.52-1.14,3.42-2.51,.91-1.37,1.39-3.14,1.45-5.3,.05-1.74-.14-3.08-.56-4.02-.42-.94-1.27-1.77-2.53-2.52-1.26-.75-3.2-1.47-5.82-2.23-3.95-1.18-6.97-3.75-9.05-7.64-2.08-3.89-3.08-9.37-2.96-16.35,.07-4.4,.77-8.63,2.12-12.66,1.34-4.02,3.3-7.31,5.88-9.85,2.58-2.54,5.62-3.86,9.1-4.02,3.49-.16,6.5,.81,9.02,2.87,2.53,2.06,4.4,4.58,5.63,7.59,1.23,3.01,1.79,5.78,1.7,8.36-.03,.89-.22,1.71-.55,2.45-.34,.74-.72,1.14-1.16,1.2-2.5,.35-5.01,.68-7.53,.99-.39,.05-.74-.16-1.07-.63-.61-.64-1.15-1.35-1.61-2.12-.79-1.24-1.54-2.2-2.25-2.85-.71-.65-1.6-.94-2.67-.84-1.27,.11-2.29,.82-3.07,2.14-.78,1.32-1.2,2.98-1.24,4.98-.03,1.57,.14,2.87,.53,3.87,.39,1.01,1.24,1.94,2.55,2.77,1.31,.83,3.25,1.61,5.83,2.27,4.63,1.1,7.92,3.54,9.89,7.41,1.97,3.88,2.84,8.6,2.63,14.33-.27,7.31-2.02,13.6-5.25,19-3.23,5.38-7.57,8.98-13.12,10.39-3.81,.96-6.99,.46-9.53-1.48Z"/><path class="cls-2" d="M250.23,222.33c-1.89-1.17-3.34-3.31-4.33-6.37-.99-3.06-1.41-6.73-1.24-10.92,.27-6.73,1.81-12.49,4.65-17.14,2.84-4.66,6.65-8.21,11.39-10.76,2.99-1.56,5.97-3.13,8.95-4.69,.04-.62,.08-1.23,.13-1.85,.23-3.35,.02-5.73-.63-7.18-.65-1.44-1.88-2.02-3.69-1.7-1.1,.19-2.02,.71-2.78,1.56-.76,.86-1.55,2-2.38,3.43-.73,1.23-1.27,2.07-1.62,2.5-.18,.77-.46,1.19-.84,1.26-2.59,.5-5.19,.97-7.79,1.42-.48,.08-.86-.16-1.14-.74-.29-.57-.39-1.3-.3-2.18,.16-2.62,.92-5.61,2.29-8.94,1.37-3.33,3.38-6.26,6.03-8.78,2.65-2.53,5.86-3.92,9.58-4.31,5.95-.62,10.16,1.26,12.59,5.38,2.43,4.15,3.25,9.82,2.55,17.39-1.14,12.52-2.28,25.04-3.43,37.56-.07,.82-.29,1.63-.65,2.42-.36,.79-.77,1.32-1.25,1.59-2.51,1.42-5.04,2.78-7.59,4.09-.44,.23-.8,.1-1.09-.4-.28-.49-.4-1.18-.34-2.06,.11-1.54,.21-3.08,.32-4.61-1.17,3.17-2.69,6.06-4.56,8.63-1.87,2.58-4.01,4.46-6.44,5.54-2.38,1.06-4.52,1.02-6.41-.15Zm15.81-22.89c1.47-3.17,2.38-7.28,2.74-12.38,.04-.62,.08-1.23,.13-1.85-2,1.28-4,2.57-6.01,3.85-4.25,2.71-6.5,6.26-6.72,10.66-.12,2.33,.27,4.02,1.16,5.01,.89,1,2.02,1.23,3.38,.71,2.09-.8,3.86-2.84,5.33-6.01Z"/><path class="cls-2" d="M293.38,135.27c-.28-.52-.37-1.21-.28-2.07,.39-3.52,.77-7.05,1.16-10.57,.09-.86,.35-1.57,.75-2.11,.41-.54,.89-.81,1.44-.8,2.99,.05,5.97,.09,8.96,.13,.55,0,.96,.27,1.23,.77,.27,.51,.35,1.15,.24,1.94-.47,3.23-.94,6.45-1.42,9.68-.12,.79-.38,1.45-.79,1.98-.41,.54-.88,.84-1.41,.89-2.89,.3-5.78,.58-8.68,.85-.53,.05-.94-.18-1.21-.7Zm-7.68,69.63c-.24-.36-.31-.97-.21-1.84,2.02-18.4,4.05-36.79,6.07-55.19,.09-.86,.34-1.59,.73-2.19,.39-.6,.85-.93,1.37-1.02,2.8-.43,5.6-.89,8.39-1.36,.52-.09,.91,.1,1.17,.54,.26,.45,.33,1.06,.21,1.85-2.46,16.85-4.93,33.71-7.39,50.56-.11,.72-.34,1.44-.71,2.19-.37,.74-.77,1.28-1.23,1.6-2.43,1.71-4.88,3.36-7.36,4.95-.46,.3-.81,.27-1.05-.09Z"/><path class="cls-2" d="M303.35,192.57c-.2-.25-.23-.74-.1-1.48,2.82-15.69,5.63-31.38,8.45-47.07,.13-.74,.4-1.37,.82-1.9,.41-.53,.88-.84,1.39-.93,2.69-.51,5.38-1.04,8.05-1.58,.51-.1,.89,.02,1.14,.36,.25,.34,.29,.84,.13,1.49-.27,1.13-.55,2.25-.82,3.38,1.7-2.3,3.69-4.22,5.96-5.79,2.27-1.57,4.67-2.55,7.16-3.09,4.06-.87,6.81-.14,8.08,1.71,1.27,1.87,.68,4.72-1.56,9.1-2.92,5.73-5.84,11.46-8.75,17.19-.21,.41-.52,.9-.91,1.49-.4,.58-.79,1.1-1.17,1.53-2.2,2.46-4.44,4.87-6.72,7.2-.36,.37-.61,.51-.76,.41-.14-.1-.13-.41,.05-.91,2.39-6.86,4.78-13.71,7.17-20.57,.82-2.36,.97-3.94,.41-4.84-.56-.9-1.8-1.03-3.69-.34-1.85,.68-3.51,1.9-4.95,3.78-1.43,1.87-2.48,4.24-3.16,7.01-1.98,8.04-3.96,16.08-5.94,24.12-.15,.59-.41,1.22-.78,1.9-.38,.68-.78,1.21-1.2,1.58-2.41,2.1-4.86,4.13-7.34,6.1-.44,.35-.75,.4-.95,.15Z"/></g></g></svg>